<?xml version="1.0" encoding="UTF-8" standalone="no"?>
<!DOCTYPE svg PUBLIC "-//W3C//DTD SVG 1.1//EN" "http://www.w3.org/Graphics/SVG/1.1/DTD/svg11.dtd">
<svg width="100%" height="100%" viewBox="0 0 2105 2093" version="1.1" xmlns="http://www.w3.org/2000/svg" xmlns:xlink="http://www.w3.org/1999/xlink" xml:space="preserve" xmlns:serif="http://www.serif.com/" style="fill-rule:evenodd;clip-rule:evenodd;stroke-linejoin:round;stroke-miterlimit:2;">
    <g transform="matrix(4.16667,0,0,4.16667,-2.50835,-2.58331)">
        <rect x="0.602" y="0.62" width="224.389" height="226.506" style="fill:rgb(255,242,0);fill-rule:nonzero;"/>
        <g transform="matrix(1,0,0,1,1.2,0)">
            <rect x="280.03" y="0.62" width="224.39" height="226.506" style="fill:rgb(44,180,87);fill-rule:nonzero;"/>
        </g>
        <rect x="0.602" y="276.666" width="224.389" height="226.506" style="fill:rgb(0,162,179);fill-rule:nonzero;"/>
        <g transform="matrix(1,0,0,1,0.72,-0.72)">
            <rect x="280.03" y="276.666" width="224.39" height="226.506" style="fill:rgb(249,161,58);fill-rule:nonzero;"/>
        </g>
        <g transform="matrix(4.30024,0,0,4.29776,-137.666,-458.912)">
            <path d="M32.26,157.214C32.26,182.861 58.438,203.65 90.727,203.65C96.095,203.65 101.285,203.065 106.223,201.992L135.663,223.58L127.368,193.392C140.675,184.881 149.197,171.84 149.197,157.214C149.197,131.566 123.021,110.776 90.727,110.776C58.44,110.776 32.26,131.566 32.26,157.214Z" style="fill:rgb(223,222,222);fill-rule:nonzero;"/>
        </g>
        <g transform="matrix(0.24,0,0,0.24,-28.08,24)">
            <text x="601px" y="1107px" style="font-family:'Arial-BoldMT', 'Arial', sans-serif;font-weight:700;font-size:833.333px;">? !</text>
        </g>
    </g>
</svg>
